<svg width="72" height="76" viewBox="0 0 72 76" fill="none" xmlns="http://www.w3.org/2000/svg">
<path d="M58.1309 43.7144L58.3122 43.8913C58.4742 44.0877 58.5902 44.3177 58.6512 44.5648C58.7981 45.7269 58.6666 46.7725 58.1859 47.4956C57.9297 47.8548 57.5497 48.1113 57.1154 48.2159L57.1154 48.2158L57.1037 48.2189C56.785 48.3039 56.3693 48.3516 55.859 48.3516C52.9596 48.3516 48.2609 46.8872 44.4125 44.7445L44.2627 44.6611L44.0933 44.6871C38.6279 45.5276 33.2384 46.7956 27.9755 48.4793L27.7918 48.5381L27.6952 48.705C25.4857 52.5205 23.5962 55.2474 21.9316 57.0149C20.2566 58.7935 18.8849 59.5201 17.7119 59.5206C17.2682 59.5195 16.8311 59.4153 16.436 59.2165L16.4337 59.2153L15.3428 58.6735C14.9508 58.4431 14.8225 57.9036 14.9411 57.3196C15.1269 56.4231 15.7998 55.3382 16.9554 54.1687C18.1015 53.0089 19.6809 51.8079 21.5986 50.6746L21.6012 50.673C21.8166 50.5439 22.4059 50.2257 22.9669 49.9268C23.2442 49.7792 23.5098 49.6388 23.7112 49.5327C23.812 49.4797 23.8965 49.4353 23.9583 49.403L24.0326 49.3643L24.0544 49.353L24.0601 49.3501C24.0614 49.3495 24.0615 49.3494 24.061 49.3497L24.061 49.3498L24.0719 49.3441L25.2102 48.7455L25.3359 48.6794L25.4081 48.5572C26.5182 46.6776 27.7406 44.4624 29.0879 41.8542C29.0882 41.8537 29.0885 41.8532 29.0887 41.8527L29.2552 41.5355L29.2568 41.5325C30.5323 39.062 31.987 36.2381 33.1514 33.4308L33.1514 33.4306L33.5631 32.4372L33.6277 32.2813L33.5846 32.1181C32.7815 29.0761 32.1632 26.4005 31.8513 24.1006C31.5389 21.7959 31.5408 19.9115 31.9448 18.4337C32.1465 17.7155 32.9637 17.1273 34.1443 17.125L34.8551 17.1456L34.8728 17.1461L34.8905 17.1453C35.7564 17.109 36.3807 17.7838 36.7426 18.6031L36.8603 18.9082L36.8603 18.9082C36.9394 19.1134 36.9912 19.3277 37.0144 19.5459L37.0153 19.5542L37.0164 19.5624C37.1031 20.1817 37.089 21.1426 37.0089 22.2686C36.9296 23.3839 36.7884 24.6254 36.6347 25.7883C36.4811 26.9503 36.3157 28.029 36.1886 28.8175C36.1251 29.2116 36.0712 29.5328 36.0333 29.7554C36.0143 29.8666 35.9993 29.9532 35.989 30.0118L35.9774 30.0783L35.9754 30.0897C35.9218 30.3271 35.863 30.5589 35.7967 30.8204C35.7828 30.8751 35.7686 30.931 35.7541 30.9885L35.7162 31.1385L35.7696 31.2836C37.1046 34.9124 39.2549 38.2196 41.8432 40.6105C42.8265 41.5222 44.0691 42.2698 45.228 42.9305L45.3772 43.0156L45.5473 42.9909C47.8731 42.6539 50.2205 42.4834 52.5712 42.4807C54.0614 42.5013 55.2741 42.6254 56.2124 42.8438C57.1603 43.0645 57.778 43.3701 58.1309 43.7144ZM16.6101 57.9423L17.1554 58.0396L17.3138 58.3948C18.0823 58.0521 18.9945 57.3592 20.0914 56.1623C21.1922 54.9612 22.5004 53.2287 24.0558 50.7736L23.2909 50.1417C22.8645 50.5426 22.4229 50.9508 22.2561 51.0859L22.2557 51.0862C20.7497 52.3076 19.4863 53.6072 18.5327 54.7794C17.6695 55.8404 17.0396 56.8222 16.7232 57.5632L16.6101 57.6136V57.9381V57.9423ZM34.527 27.117L34.8734 28.2168L35.4395 27.2123C36.0916 26.0553 36.6062 24.5041 36.5623 22.3303C36.5407 21.2595 36.3997 20.1364 36.1393 19.2652C36.0101 18.8329 35.8422 18.4303 35.6221 18.1252C35.4054 17.8247 35.0756 17.5383 34.6217 17.5383C34.4182 17.5383 34.2723 17.6411 34.1891 17.7281C34.1103 17.8104 34.0617 17.9032 34.0312 17.9725C33.9693 18.1131 33.9291 18.2823 33.9001 18.4418C33.8405 18.7699 33.8058 19.1901 33.7848 19.5895C33.7635 19.9936 33.7554 20.3957 33.7526 20.6955C33.7511 20.8457 33.751 20.971 33.7512 21.059C33.7514 21.103 33.7516 21.1377 33.7518 21.1616L33.752 21.1891L33.7521 21.1932C33.7521 21.1941 33.7521 21.1951 33.7521 21.196C33.7523 22.8729 34.0021 25.4503 34.527 27.117ZM29.3964 46.974H29.6878L29.7435 46.8756C33.0757 45.6207 36.8606 44.5847 41.2411 43.7267L42.3388 43.5116L41.4465 42.8371C41.1503 42.6132 40.8633 42.386 40.5979 42.1638C38.3774 40.276 36.5262 38.0011 35.1363 35.4523L34.6226 34.5102L34.2317 35.5095C33.4815 37.4272 32.4773 39.7615 30.8793 42.7507C30.222 43.977 29.5813 45.1332 28.9613 46.2276L29.289 46.4132L29.3922 46.974H29.3964ZM57.888 46.6488L58.1232 46.5019V46.4193C58.3304 46.1068 58.2728 45.6694 58.0787 45.3547C57.8129 44.924 57.2668 44.5691 56.4105 44.3517C54.7942 43.9412 54.2534 43.9413 52.6794 43.9414L52.5911 43.9414C51.6856 43.9414 50.6818 43.9837 49.5933 44.0633L49.4338 45.022C52.2246 46.2108 54.3278 46.9907 56.0691 46.9907C56.3457 46.9907 56.6916 46.9646 57.0077 46.9157C57.1662 46.8911 57.325 46.8596 57.4684 46.8201C57.6037 46.7828 57.7585 46.7296 57.888 46.6488Z" fill="#434343" stroke="#121212"/>
<rect x="1" y="1" width="70" height="74" rx="2" stroke="#121212" stroke-width="2"/>
</svg>
