<svg viewBox="0 0 18 12" fill="none" xmlns="http://www.w3.org/2000/svg">
<path fill-rule="evenodd" clip-rule="evenodd" d="M0.949971 5.99994C2.30546 9.0285 5.40082 11.1429 9.00003 11.1429C12.5992 11.1429 15.6945 9.02855 17.05 6.00006C15.6945 2.9715 12.5992 0.857143 8.99998 0.857143C5.40081 0.857143 2.30549 2.97145 0.949971 5.99994ZM18 6.00006C16.595 2.48801 13.0951 0 8.99998 0C4.90486 0 1.405 2.48795 0 5.99994C1.40497 9.51199 4.90486 12 9.00003 12C13.0951 12 16.595 9.51205 18 6.00006Z"/>
<path fill-rule="evenodd" clip-rule="evenodd" d="M9 8.57143C10.4548 8.57143 11.6341 7.42016 11.6341 6C11.6341 4.57984 10.4548 3.42857 9 3.42857C7.54522 3.42857 6.36589 4.57984 6.36589 6C6.36589 7.42016 7.54522 8.57143 9 8.57143ZM9 9.42857C10.9397 9.42857 12.5122 7.89355 12.5122 6C12.5122 4.10645 10.9397 2.57143 9 2.57143C7.06029 2.57143 5.48785 4.10645 5.48785 6C5.48785 7.89355 7.06029 9.42857 9 9.42857Z"/>
</svg>
