<svg viewBox="0 0 14 15" fill="none" xmlns="http://www.w3.org/2000/svg">
<path fill-rule="evenodd" clip-rule="evenodd" d="M4.30202 2.29907C4.49167 2.10442 4.74329 2 5 2H9C9.25671 2 9.50833 2.10442 9.69799 2.29907C9.8885 2.49459 10 2.76519 10 3.05263V4.78946H4V3.05263C4 2.76519 4.1115 2.4946 4.30202 2.29907ZM5 0C4.19585 0 3.43005 0.328097 2.86956 0.903334C2.30993 1.47769 2 2.25128 2 3.05263V4.81322C0.851629 4.97848 0 5.98541 0 7.15791V12.6316C0 13.915 1.02034 15 2.33333 15H11.6667C12.9797 15 14 13.915 14 12.6316V7.15791C14 5.98541 13.1484 4.97848 12 4.81322V3.05263C12 2.25128 11.6901 1.47769 11.1304 0.903334C10.57 0.328097 9.80415 0 9 0H5ZM2 7.15791C2 6.92979 2.17357 6.78949 2.33333 6.78949H11.6667C11.8264 6.78949 12 6.92979 12 7.15791V12.6316C12 12.8597 11.8264 13 11.6667 13H2.33333C2.17357 13 2 12.8597 2 12.6316V7.15791Z"/>
</svg>
