<?xml version="1.0" standalone="no"?>
<!DOCTYPE svg PUBLIC "-//W3C//DTD SVG 20010904//EN"
 "http://www.w3.org/TR/2001/REC-SVG-20010904/DTD/svg10.dtd">
<svg version="1.0" xmlns="http://www.w3.org/2000/svg"
 width="700.000000pt" height="700.000000pt" viewBox="0 0 700.000000 700.000000"
 preserveAspectRatio="xMidYMid meet">
<metadata>
Created by potrace 1.14, written by Peter Selinger 2001-2017
</metadata>
<g transform="translate(0.000000,700.000000) scale(0.100000,-0.100000)"
fill="#000000" stroke="none">
<path d="M3365 6984 c-1086 -52 -2052 -573 -2689 -1448 -328 -451 -541 -975
-625 -1541 -25 -165 -33 -293 -34 -500 0 -570 121 -1077 378 -1585 475 -937
1367 -1622 2393 -1836 257 -53 415 -68 722 -68 312 0 424 11 694 65 672 136
1281 464 1771 954 290 290 501 587 680 958 164 341 268 692 321 1092 25 182
25 647 1 830 -63 473 -198 891 -412 1276 -285 513 -712 963 -1203 1271 -372
233 -804 401 -1229 477 -220 40 -568 64 -768 55z m1680 -2043 c-2 -3 -87 -116
-190 -251 -102 -135 -257 -339 -344 -455 -87 -115 -241 -318 -341 -450 -101
-132 -234 -308 -297 -391 l-114 -152 -267 -201 c-147 -110 -418 -315 -602
-454 -759 -572 -859 -647 -868 -647 -5 0 -19 11 -32 25 l-23 24 25 33 c13 18
97 132 186 253 231 315 760 1030 969 1312 111 149 116 154 247 250 415 303
1526 1121 1556 1145 l34 28 33 -32 c18 -17 30 -34 28 -37z"/>
</g>
</svg>
