<svg width="94" height="110" viewBox="0 0 94 110" fill="none" xmlns="http://www.w3.org/2000/svg">
<path d="M46.8517 2.0376L91.6664 28.519V81.4817L46.8517 107.963L2.03711 81.4817V28.519L46.8517 2.0376Z" fill="#F9CD74"/>
<path d="M91.6664 28.519L46.8517 55.0003L2.03711 28.519L46.8517 2.0376L91.6664 28.519Z" fill="#F9B659"/>
<path d="M46.8518 54.9999V107.963L91.6664 81.4813V28.5186L46.8518 54.9999Z" fill="#F7B030"/>
<path d="M77.067 37.1454V55.4787L62.4697 64.1055V45.7723L17.6551 19.2909L32.2524 10.6641L77.067 37.1454Z" fill="#B1BD70"/>
<path d="M77.067 37.1455V55.4788L62.4697 64.1056V45.7723L77.067 37.1455Z" fill="#8F9E46"/>
<path d="M10.1852 79.4448C9.06027 79.4448 8.14819 78.5328 8.14819 77.4078V69.2597C8.14819 68.1347 9.06027 67.2227 10.1852 67.2227C11.3102 67.2227 12.2223 68.1347 12.2223 69.2597V77.4078C12.2223 78.5328 11.3102 79.4448 10.1852 79.4448Z" fill="#F7B030"/>
<path d="M18.3334 83.519C17.2084 83.519 16.2963 82.607 16.2963 81.482V73.3339C16.2963 72.209 17.2084 71.2969 18.3334 71.2969C19.4583 71.2969 20.3704 72.209 20.3704 73.3339V81.482C20.3704 82.607 19.4583 83.519 18.3334 83.519Z" fill="#F7B030"/>
<path d="M46.8516 57.0367C46.487 57.037 46.1287 56.9392 45.8148 56.7536L7.89549 34.3463C6.92688 33.7736 6.6058 32.5241 7.17846 31.5555C7.75112 30.5869 9.00058 30.2658 9.96919 30.8385L46.8516 52.6327L90.6294 26.7624C91.598 26.1897 92.8475 26.5108 93.4201 27.4794C93.9928 28.448 93.6717 29.6975 92.7031 30.2702L47.8885 56.7515C47.5745 56.9377 47.2165 57.0362 46.8516 57.0367Z" fill="#666666"/>
<path d="M46.8516 91.6664C45.7267 91.6664 44.8146 90.7544 44.8146 89.6294V54.9999C44.8146 53.875 45.7267 52.9629 46.8516 52.9629C47.9766 52.9629 48.8887 53.875 48.8887 54.9999V89.6294C48.8887 90.7544 47.9766 91.6664 46.8516 91.6664Z" fill="#666666"/>
<path d="M46.8516 110C45.7267 110 44.8146 109.088 44.8146 107.963V97.7778C44.8146 96.6528 45.7267 95.7407 46.8516 95.7407C47.9766 95.7407 48.8887 96.6528 48.8887 97.7778V107.963C48.8887 109.088 47.9766 110 46.8516 110Z" fill="#666666"/>
<path d="M50.9257 23.734C50.5616 23.7337 50.2043 23.6359 49.8909 23.4508L31.2154 12.4264C30.2468 11.8537 29.9257 10.6043 30.4984 9.63568C31.071 8.66707 32.3205 8.34599 33.2891 8.91865L51.9625 19.9532C52.9301 20.5274 53.2489 21.7771 52.675 22.7445C52.3081 23.3627 51.6427 23.7419 50.9237 23.7421L50.9257 23.734Z" fill="#666666"/>
<path d="M62.4696 66.1428C61.3446 66.1428 60.4325 65.2308 60.4325 64.1058V46.9357L16.6181 21.0451C15.6495 20.4724 15.3284 19.2229 15.9011 18.2543C16.4737 17.2857 17.7232 16.9646 18.6918 17.5373L63.5064 44.0187C64.1264 44.3853 64.5069 45.0522 64.5066 45.7726V60.5369L75.0299 54.3179V38.3089L56 27.0624C55.0314 26.4898 54.7103 25.2403 55.2829 24.2717C55.8556 23.3031 57.1051 22.982 58.0737 23.5547L78.1038 35.3919C78.7238 35.7585 79.1042 36.4254 79.104 37.1457V55.479C79.1042 56.1993 78.7238 56.8662 78.1038 57.2329L63.5064 65.8597C63.1922 66.0451 62.8342 66.1428 62.4696 66.1428Z" fill="#666666"/>
<path d="M46.8517 110C46.487 110 46.1288 109.902 45.8148 109.717L1.00018 83.2355C0.380161 82.8688 -0.000254501 82.202 1.27745e-07 81.4816V28.5188C-0.000254501 27.7985 0.380161 27.1316 1.00018 26.765L45.8148 0.283593C46.4544 -0.0945309 47.2489 -0.0945309 47.8885 0.283593L92.7031 26.765C93.3232 27.1316 93.7036 27.7985 93.7033 28.5188V81.4816C93.7036 82.202 93.3232 82.8688 92.7031 83.2355L47.8885 109.717C47.5743 109.902 47.2163 110 46.8517 110ZM4.07406 80.3185L46.8517 105.596L89.6293 80.3185V29.682L46.8517 4.4045L4.07406 29.682V80.3185Z" fill="#666666"/>
</svg>
