<svg viewBox="0 0 24 24" fill="none" xmlns="http://www.w3.org/2000/svg">
<path d="M17.8101 13.39C19.5705 11.944 20.7117 9.8798 21.0001 7.61997C21.0159 7.48865 21.0056 7.35551 20.9699 7.22815C20.9342 7.1008 20.8738 6.98172 20.7921 6.87772C20.7103 6.77372 20.6089 6.68683 20.4936 6.62201C20.3783 6.5572 20.2514 6.51573 20.1201 6.49997C19.9888 6.48421 19.8556 6.49448 19.7283 6.53017C19.6009 6.56587 19.4818 6.6263 19.3778 6.70801C19.2738 6.78973 19.1869 6.89113 19.1221 7.00642C19.0573 7.12172 19.0159 7.24865 19.0001 7.37997C18.761 9.06626 17.9213 10.6096 16.6352 11.7262C15.3491 12.8427 13.7032 13.4576 12.0001 13.4576C10.2969 13.4576 8.65104 12.8427 7.36498 11.7262C6.07893 10.6096 5.23917 9.06626 5.00009 7.37997C4.98434 7.24865 4.94287 7.12172 4.87805 7.00642C4.81324 6.89113 4.72635 6.78973 4.62235 6.70801C4.51835 6.6263 4.39927 6.56587 4.27191 6.53017C4.14456 6.49448 4.01142 6.48421 3.88009 6.49997C3.74877 6.51573 3.62184 6.5572 3.50655 6.62201C3.39125 6.68683 3.28985 6.77372 3.20813 6.87772C3.12642 6.98172 3.06599 7.1008 3.03029 7.22815C2.9946 7.35551 2.98434 7.48865 3.00009 7.61997C3.28593 9.87831 4.42342 11.9422 6.18009 13.39L3.88009 15.71C3.71627 15.9013 3.63066 16.1473 3.64038 16.399C3.6501 16.6507 3.75444 16.8894 3.93253 17.0675C4.11063 17.2456 4.34937 17.35 4.60104 17.3597C4.85272 17.3694 5.09879 17.2838 5.29009 17.12L7.90009 14.52C8.8699 15.0101 9.91995 15.3217 11.0001 15.44V19C11.0001 19.2652 11.1055 19.5195 11.293 19.7071C11.4805 19.8946 11.7349 20 12.0001 20C12.2653 20 12.5197 19.8946 12.7072 19.7071C12.8947 19.5195 13.0001 19.2652 13.0001 19V15.44C14.0802 15.3217 15.1303 15.0101 16.1001 14.52L18.7101 17.12C18.9014 17.2838 19.1475 17.3694 19.3991 17.3597C19.6508 17.35 19.8896 17.2456 20.0677 17.0675C20.2458 16.8894 20.3501 16.6507 20.3598 16.399C20.3695 16.1473 20.2839 15.9013 20.1201 15.71L17.8101 13.39Z"/>
</svg>
